<svg viewBox="0 0 800 1280" xmlns="http://www.w3.org/2000/svg" fill-rule="evenodd" clip-rule="evenodd" stroke-linecap="round" stroke-linejoin="round" stroke-miterlimit="1.5">
    <path d="M400 0s-1.731 145.351 0 180.767c.543 11.116 8.538 20.609 10.385 31.732 8.504 51.209-23.208 89.368-54.264 125.872-29.682 34.889-66.744 68.487-79.497 114.216-4.446 15.944-4.897 26.632-4.159 43.387 2.002 45.427 25.901 89.547 51.565 125.778 46.12 65.11 105.22 122.424 133.198 198.661 10.528 28.691-3.472 61.736-16.169 87.25-30.036 60.352-72.309 118.097-85.907 185.258-9.038 44.634 15.981 87.495 33.06 126.734 7.902 18.155 18.311 40.09 11.788 60.345" fill="none" stroke="#fff" pathLength="1" stroke-width="7.97"/>
</svg>
